<mxfile host="app.diagrams.net" modified="2023-10-09T15:43:31.825Z" agent="Mozilla/5.0 (Macintosh; Intel Mac OS X 10_15_7) AppleWebKit/537.36 (KHTML, like Gecko) Chrome/116.0.0.0 Safari/537.36" version="22.0.4" etag="90ksmm4BCOlS093o4MsJ" type="github">
  <diagram name="第 1 页" id="vruqh-7uNLGVUC-JCkji">
    <mxGraphModel>
      <root>
        <mxCell id="0" />
        <mxCell id="1" parent="0" />
      </root>
    </mxGraphModel>
  </diagram>
</mxfile>
